<mxfile host="app.diagrams.net" modified="2021-01-22T01:40:19.693Z" agent="5.0 (X11; Linux x86_64) AppleWebKit/537.36 (KHTML, like Gecko) Chrome/88.0.4324.96 Safari/537.36" etag="rLhLboHHVFXcDh0ZiG3r" version="14.2.6" type="github">
  <diagram id="3N2bnh52mRs4vKsenxgD" name="Page-1">
    <mxGraphModel dx="2284" dy="1973" grid="1" gridSize="10" guides="1" tooltips="1" connect="1" arrows="1" fold="1" page="1" pageScale="1" pageWidth="827" pageHeight="1169" math="0" shadow="0">
      <root>
        <mxCell id="0" />
        <mxCell id="1" parent="0" />
        <mxCell id="wr0yRLGajq1JF1R-OTqu-190" value="" style="edgeStyle=orthogonalEdgeStyle;rounded=0;orthogonalLoop=1;jettySize=auto;html=1;" edge="1" parent="1" source="wr0yRLGajq1JF1R-OTqu-2" target="wr0yRLGajq1JF1R-OTqu-181">
          <mxGeometry relative="1" as="geometry" />
        </mxCell>
        <mxCell id="wr0yRLGajq1JF1R-OTqu-2" value="&lt;font style=&quot;font-size: 18px&quot;&gt;Aluno&lt;/font&gt;" style="rounded=0;whiteSpace=wrap;html=1;" vertex="1" parent="1">
          <mxGeometry x="360" y="240" width="120" height="60" as="geometry" />
        </mxCell>
        <mxCell id="wr0yRLGajq1JF1R-OTqu-3" value="&lt;p style=&quot;line-height: 170%&quot;&gt;&lt;span style=&quot;font-size: 17px&quot;&gt;Equipamento&lt;/span&gt;&lt;/p&gt;" style="rounded=0;whiteSpace=wrap;html=1;" vertex="1" parent="1">
          <mxGeometry x="-250" y="170" width="120" height="60" as="geometry" />
        </mxCell>
        <mxCell id="wr0yRLGajq1JF1R-OTqu-175" style="edgeStyle=orthogonalEdgeStyle;rounded=0;orthogonalLoop=1;jettySize=auto;html=1;" edge="1" parent="1" source="wr0yRLGajq1JF1R-OTqu-4" target="wr0yRLGajq1JF1R-OTqu-12">
          <mxGeometry relative="1" as="geometry" />
        </mxCell>
        <mxCell id="wr0yRLGajq1JF1R-OTqu-4" value="&lt;font style=&quot;font-size: 21px&quot;&gt;Faz&lt;br&gt;&lt;/font&gt;" style="rhombus;whiteSpace=wrap;html=1;" vertex="1" parent="1">
          <mxGeometry x="130" y="490" width="116" height="80" as="geometry" />
        </mxCell>
        <mxCell id="wr0yRLGajq1JF1R-OTqu-141" value="" style="edgeStyle=orthogonalEdgeStyle;rounded=0;orthogonalLoop=1;jettySize=auto;html=1;" edge="1" parent="1" source="wr0yRLGajq1JF1R-OTqu-5" target="wr0yRLGajq1JF1R-OTqu-9">
          <mxGeometry relative="1" as="geometry" />
        </mxCell>
        <mxCell id="wr0yRLGajq1JF1R-OTqu-142" value="" style="edgeStyle=orthogonalEdgeStyle;rounded=0;orthogonalLoop=1;jettySize=auto;html=1;" edge="1" parent="1" source="wr0yRLGajq1JF1R-OTqu-5" target="wr0yRLGajq1JF1R-OTqu-2">
          <mxGeometry relative="1" as="geometry" />
        </mxCell>
        <mxCell id="wr0yRLGajq1JF1R-OTqu-5" value="&lt;font style=&quot;font-size: 18px&quot;&gt;Possui&lt;/font&gt;" style="rhombus;whiteSpace=wrap;html=1;" vertex="1" parent="1">
          <mxGeometry x="362" y="70" width="116" height="80" as="geometry" />
        </mxCell>
        <mxCell id="wr0yRLGajq1JF1R-OTqu-92" style="edgeStyle=orthogonalEdgeStyle;rounded=0;orthogonalLoop=1;jettySize=auto;html=1;entryX=0.417;entryY=1;entryDx=0;entryDy=0;entryPerimeter=0;" edge="1" parent="1" source="wr0yRLGajq1JF1R-OTqu-6" target="wr0yRLGajq1JF1R-OTqu-3">
          <mxGeometry relative="1" as="geometry" />
        </mxCell>
        <mxCell id="wr0yRLGajq1JF1R-OTqu-6" value="&lt;span style=&quot;font-size: 18px&quot;&gt;Reservado&lt;/span&gt;" style="rhombus;whiteSpace=wrap;html=1;" vertex="1" parent="1">
          <mxGeometry x="-258" y="310" width="116" height="80" as="geometry" />
        </mxCell>
        <mxCell id="wr0yRLGajq1JF1R-OTqu-9" value="&lt;font style=&quot;font-size: 17px&quot;&gt;Responsáveis&lt;/font&gt;" style="rounded=0;whiteSpace=wrap;html=1;" vertex="1" parent="1">
          <mxGeometry x="360" y="-50" width="120" height="60" as="geometry" />
        </mxCell>
        <mxCell id="wr0yRLGajq1JF1R-OTqu-94" style="edgeStyle=orthogonalEdgeStyle;rounded=0;orthogonalLoop=1;jettySize=auto;html=1;entryX=0.5;entryY=1;entryDx=0;entryDy=0;" edge="1" parent="1" source="wr0yRLGajq1JF1R-OTqu-10" target="wr0yRLGajq1JF1R-OTqu-6">
          <mxGeometry relative="1" as="geometry" />
        </mxCell>
        <mxCell id="wr0yRLGajq1JF1R-OTqu-113" style="edgeStyle=orthogonalEdgeStyle;rounded=0;orthogonalLoop=1;jettySize=auto;html=1;" edge="1" parent="1" source="wr0yRLGajq1JF1R-OTqu-10" target="wr0yRLGajq1JF1R-OTqu-4">
          <mxGeometry relative="1" as="geometry" />
        </mxCell>
        <mxCell id="wr0yRLGajq1JF1R-OTqu-10" value="&lt;font style=&quot;font-size: 17px&quot;&gt;Servidor&lt;/font&gt;" style="rounded=0;whiteSpace=wrap;html=1;" vertex="1" parent="1">
          <mxGeometry x="-260" y="500" width="120" height="60" as="geometry" />
        </mxCell>
        <mxCell id="wr0yRLGajq1JF1R-OTqu-12" value="&lt;font style=&quot;font-size: 20px&quot;&gt;Aluguel&lt;/font&gt;" style="rounded=0;whiteSpace=wrap;html=1;" vertex="1" parent="1">
          <mxGeometry x="370" y="510" width="120" height="60" as="geometry" />
        </mxCell>
        <mxCell id="wr0yRLGajq1JF1R-OTqu-167" style="edgeStyle=orthogonalEdgeStyle;rounded=0;orthogonalLoop=1;jettySize=auto;html=1;exitX=1;exitY=0.5;exitDx=0;exitDy=0;" edge="1" parent="1" source="wr0yRLGajq1JF1R-OTqu-14" target="wr0yRLGajq1JF1R-OTqu-2">
          <mxGeometry relative="1" as="geometry" />
        </mxCell>
        <mxCell id="wr0yRLGajq1JF1R-OTqu-168" style="edgeStyle=orthogonalEdgeStyle;rounded=0;orthogonalLoop=1;jettySize=auto;html=1;entryX=1;entryY=0.5;entryDx=0;entryDy=0;" edge="1" parent="1" source="wr0yRLGajq1JF1R-OTqu-14" target="wr0yRLGajq1JF1R-OTqu-3">
          <mxGeometry relative="1" as="geometry" />
        </mxCell>
        <mxCell id="wr0yRLGajq1JF1R-OTqu-14" value="&lt;font style=&quot;font-size: 18px&quot;&gt;Pede&lt;/font&gt;" style="rhombus;whiteSpace=wrap;html=1;" vertex="1" parent="1">
          <mxGeometry x="50" y="190" width="116" height="80" as="geometry" />
        </mxCell>
        <mxCell id="wr0yRLGajq1JF1R-OTqu-77" style="edgeStyle=orthogonalEdgeStyle;rounded=0;orthogonalLoop=1;jettySize=auto;html=1;entryX=0.119;entryY=-0.015;entryDx=0;entryDy=0;entryPerimeter=0;" edge="1" parent="1" source="wr0yRLGajq1JF1R-OTqu-20" target="wr0yRLGajq1JF1R-OTqu-3">
          <mxGeometry relative="1" as="geometry" />
        </mxCell>
        <mxCell id="wr0yRLGajq1JF1R-OTqu-20" value="N Tombamento" style="ellipse;whiteSpace=wrap;html=1;align=center;" vertex="1" parent="1">
          <mxGeometry x="-460" y="110" width="100" height="40" as="geometry" />
        </mxCell>
        <mxCell id="wr0yRLGajq1JF1R-OTqu-87" style="edgeStyle=orthogonalEdgeStyle;rounded=0;orthogonalLoop=1;jettySize=auto;html=1;" edge="1" parent="1" source="wr0yRLGajq1JF1R-OTqu-21" target="wr0yRLGajq1JF1R-OTqu-3">
          <mxGeometry relative="1" as="geometry" />
        </mxCell>
        <mxCell id="wr0yRLGajq1JF1R-OTqu-21" value="Fabricante" style="ellipse;whiteSpace=wrap;html=1;align=center;" vertex="1" parent="1">
          <mxGeometry x="-70" y="70" width="95" height="40" as="geometry" />
        </mxCell>
        <mxCell id="wr0yRLGajq1JF1R-OTqu-81" style="edgeStyle=orthogonalEdgeStyle;rounded=0;orthogonalLoop=1;jettySize=auto;html=1;entryX=0.404;entryY=0.017;entryDx=0;entryDy=0;entryPerimeter=0;" edge="1" parent="1" source="wr0yRLGajq1JF1R-OTqu-22" target="wr0yRLGajq1JF1R-OTqu-3">
          <mxGeometry relative="1" as="geometry" />
        </mxCell>
        <mxCell id="wr0yRLGajq1JF1R-OTqu-22" value="Descrição" style="ellipse;whiteSpace=wrap;html=1;align=center;" vertex="1" parent="1">
          <mxGeometry x="-463" y="50" width="100" height="40" as="geometry" />
        </mxCell>
        <mxCell id="wr0yRLGajq1JF1R-OTqu-74" style="edgeStyle=orthogonalEdgeStyle;rounded=0;orthogonalLoop=1;jettySize=auto;html=1;entryX=0;entryY=0.333;entryDx=0;entryDy=0;entryPerimeter=0;" edge="1" parent="1" source="wr0yRLGajq1JF1R-OTqu-24" target="wr0yRLGajq1JF1R-OTqu-3">
          <mxGeometry relative="1" as="geometry" />
        </mxCell>
        <mxCell id="wr0yRLGajq1JF1R-OTqu-24" value="Aquisição" style="ellipse;whiteSpace=wrap;html=1;align=center;" vertex="1" parent="1">
          <mxGeometry x="-463" y="170" width="100" height="40" as="geometry" />
        </mxCell>
        <mxCell id="wr0yRLGajq1JF1R-OTqu-85" style="edgeStyle=orthogonalEdgeStyle;rounded=0;orthogonalLoop=1;jettySize=auto;html=1;entryX=0.75;entryY=0;entryDx=0;entryDy=0;" edge="1" parent="1" source="wr0yRLGajq1JF1R-OTqu-25" target="wr0yRLGajq1JF1R-OTqu-3">
          <mxGeometry relative="1" as="geometry" />
        </mxCell>
        <mxCell id="wr0yRLGajq1JF1R-OTqu-25" value="Valor" style="ellipse;whiteSpace=wrap;html=1;align=center;" vertex="1" parent="1">
          <mxGeometry x="-90" width="100" height="40" as="geometry" />
        </mxCell>
        <mxCell id="wr0yRLGajq1JF1R-OTqu-37" style="edgeStyle=orthogonalEdgeStyle;rounded=0;orthogonalLoop=1;jettySize=auto;html=1;exitX=0.5;exitY=1;exitDx=0;exitDy=0;" edge="1" parent="1" source="wr0yRLGajq1JF1R-OTqu-21" target="wr0yRLGajq1JF1R-OTqu-21">
          <mxGeometry relative="1" as="geometry" />
        </mxCell>
        <mxCell id="wr0yRLGajq1JF1R-OTqu-98" style="edgeStyle=orthogonalEdgeStyle;rounded=0;orthogonalLoop=1;jettySize=auto;html=1;exitX=0;exitY=0.5;exitDx=0;exitDy=0;entryX=0.996;entryY=0.661;entryDx=0;entryDy=0;entryPerimeter=0;" edge="1" parent="1" source="wr0yRLGajq1JF1R-OTqu-42" target="wr0yRLGajq1JF1R-OTqu-10">
          <mxGeometry relative="1" as="geometry" />
        </mxCell>
        <mxCell id="wr0yRLGajq1JF1R-OTqu-42" value="&lt;font style=&quot;font-size: 15px&quot;&gt;Matricula&lt;/font&gt;" style="ellipse;whiteSpace=wrap;html=1;align=center;fontStyle=4;" vertex="1" parent="1">
          <mxGeometry x="-70" y="580" width="100" height="40" as="geometry" />
        </mxCell>
        <mxCell id="wr0yRLGajq1JF1R-OTqu-84" style="edgeStyle=orthogonalEdgeStyle;rounded=0;orthogonalLoop=1;jettySize=auto;html=1;entryX=0.617;entryY=0;entryDx=0;entryDy=0;entryPerimeter=0;" edge="1" parent="1" source="wr0yRLGajq1JF1R-OTqu-43" target="wr0yRLGajq1JF1R-OTqu-3">
          <mxGeometry relative="1" as="geometry" />
        </mxCell>
        <mxCell id="wr0yRLGajq1JF1R-OTqu-43" value="Campus" style="ellipse;whiteSpace=wrap;html=1;align=center;fontStyle=4;" vertex="1" parent="1">
          <mxGeometry x="-232" y="-60" width="100" height="40" as="geometry" />
        </mxCell>
        <mxCell id="wr0yRLGajq1JF1R-OTqu-102" style="edgeStyle=orthogonalEdgeStyle;rounded=0;orthogonalLoop=1;jettySize=auto;html=1;entryX=0.853;entryY=-0.014;entryDx=0;entryDy=0;entryPerimeter=0;" edge="1" parent="1" source="wr0yRLGajq1JF1R-OTqu-44" target="wr0yRLGajq1JF1R-OTqu-10">
          <mxGeometry relative="1" as="geometry" />
        </mxCell>
        <mxCell id="wr0yRLGajq1JF1R-OTqu-44" value="Endereço" style="ellipse;whiteSpace=wrap;html=1;align=center;" vertex="1" parent="1">
          <mxGeometry x="-186" y="410" width="100" height="40" as="geometry" />
        </mxCell>
        <mxCell id="wr0yRLGajq1JF1R-OTqu-101" style="edgeStyle=orthogonalEdgeStyle;rounded=0;orthogonalLoop=1;jettySize=auto;html=1;entryX=0.064;entryY=-0.014;entryDx=0;entryDy=0;entryPerimeter=0;" edge="1" parent="1" source="wr0yRLGajq1JF1R-OTqu-46" target="wr0yRLGajq1JF1R-OTqu-10">
          <mxGeometry relative="1" as="geometry" />
        </mxCell>
        <mxCell id="wr0yRLGajq1JF1R-OTqu-46" value="Nome" style="ellipse;whiteSpace=wrap;html=1;align=center;" vertex="1" parent="1">
          <mxGeometry x="-450" y="430" width="100" height="40" as="geometry" />
        </mxCell>
        <mxCell id="wr0yRLGajq1JF1R-OTqu-100" style="edgeStyle=orthogonalEdgeStyle;rounded=0;orthogonalLoop=1;jettySize=auto;html=1;entryX=0.006;entryY=0.642;entryDx=0;entryDy=0;entryPerimeter=0;" edge="1" parent="1" source="wr0yRLGajq1JF1R-OTqu-49" target="wr0yRLGajq1JF1R-OTqu-10">
          <mxGeometry relative="1" as="geometry" />
        </mxCell>
        <mxCell id="wr0yRLGajq1JF1R-OTqu-49" value="&lt;span style=&quot;font-weight: normal&quot;&gt;Email&lt;/span&gt;" style="ellipse;whiteSpace=wrap;html=1;align=center;fontStyle=1" vertex="1" parent="1">
          <mxGeometry x="-480" y="510" width="100" height="40" as="geometry" />
        </mxCell>
        <mxCell id="wr0yRLGajq1JF1R-OTqu-99" style="edgeStyle=orthogonalEdgeStyle;rounded=0;orthogonalLoop=1;jettySize=auto;html=1;exitX=0.5;exitY=0;exitDx=0;exitDy=0;" edge="1" parent="1" source="wr0yRLGajq1JF1R-OTqu-50">
          <mxGeometry relative="1" as="geometry">
            <mxPoint x="-199.71428571428578" y="560" as="targetPoint" />
          </mxGeometry>
        </mxCell>
        <mxCell id="wr0yRLGajq1JF1R-OTqu-50" value="&lt;span style=&quot;font-weight: normal&quot;&gt;Telefone&lt;/span&gt;" style="ellipse;whiteSpace=wrap;html=1;align=center;fontStyle=1" vertex="1" parent="1">
          <mxGeometry x="-250" y="610" width="100" height="40" as="geometry" />
        </mxCell>
        <mxCell id="wr0yRLGajq1JF1R-OTqu-177" style="edgeStyle=orthogonalEdgeStyle;rounded=0;orthogonalLoop=1;jettySize=auto;html=1;" edge="1" parent="1" source="wr0yRLGajq1JF1R-OTqu-51" target="wr0yRLGajq1JF1R-OTqu-12">
          <mxGeometry relative="1" as="geometry" />
        </mxCell>
        <mxCell id="wr0yRLGajq1JF1R-OTqu-51" value="&lt;span style=&quot;font-weight: normal&quot;&gt;Entrega&lt;/span&gt;" style="ellipse;whiteSpace=wrap;html=1;align=center;fontStyle=1" vertex="1" parent="1">
          <mxGeometry x="590" y="520" width="100" height="40" as="geometry" />
        </mxCell>
        <mxCell id="wr0yRLGajq1JF1R-OTqu-75" value="1,n" style="text;html=1;strokeColor=none;fillColor=none;align=center;verticalAlign=middle;whiteSpace=wrap;rounded=0;" vertex="1" parent="1">
          <mxGeometry x="-363" y="170" width="40" height="20" as="geometry" />
        </mxCell>
        <mxCell id="wr0yRLGajq1JF1R-OTqu-76" value="n,1" style="text;html=1;strokeColor=none;fillColor=none;align=center;verticalAlign=middle;whiteSpace=wrap;rounded=0;" vertex="1" parent="1">
          <mxGeometry x="-290" y="170" width="40" height="20" as="geometry" />
        </mxCell>
        <mxCell id="wr0yRLGajq1JF1R-OTqu-78" value="1,n" style="text;html=1;strokeColor=none;fillColor=none;align=center;verticalAlign=middle;whiteSpace=wrap;rounded=0;" vertex="1" parent="1">
          <mxGeometry x="-350" y="110" width="40" height="20" as="geometry" />
        </mxCell>
        <mxCell id="wr0yRLGajq1JF1R-OTqu-80" value="n,1" style="text;html=1;strokeColor=none;fillColor=none;align=center;verticalAlign=middle;whiteSpace=wrap;rounded=0;" vertex="1" parent="1">
          <mxGeometry x="-266" y="140" width="40" height="20" as="geometry" />
        </mxCell>
        <mxCell id="wr0yRLGajq1JF1R-OTqu-82" value="1,n" style="text;html=1;strokeColor=none;fillColor=none;align=center;verticalAlign=middle;whiteSpace=wrap;rounded=0;" vertex="1" parent="1">
          <mxGeometry x="-363" y="40" width="40" height="20" as="geometry" />
        </mxCell>
        <mxCell id="wr0yRLGajq1JF1R-OTqu-88" value="1,n" style="text;html=1;strokeColor=none;fillColor=none;align=center;verticalAlign=middle;whiteSpace=wrap;rounded=0;" vertex="1" parent="1">
          <mxGeometry x="-232" y="140" width="40" height="20" as="geometry" />
        </mxCell>
        <mxCell id="wr0yRLGajq1JF1R-OTqu-89" value="1,n" style="text;html=1;strokeColor=none;fillColor=none;align=center;verticalAlign=middle;whiteSpace=wrap;rounded=0;" vertex="1" parent="1">
          <mxGeometry x="-220" y="-20" width="40" height="20" as="geometry" />
        </mxCell>
        <mxCell id="wr0yRLGajq1JF1R-OTqu-90" value="n,1" style="text;html=1;strokeColor=none;fillColor=none;align=center;verticalAlign=middle;whiteSpace=wrap;rounded=0;" vertex="1" parent="1">
          <mxGeometry x="-126" width="40" height="20" as="geometry" />
        </mxCell>
        <mxCell id="wr0yRLGajq1JF1R-OTqu-91" value="n,1" style="text;html=1;strokeColor=none;fillColor=none;align=center;verticalAlign=middle;whiteSpace=wrap;rounded=0;" vertex="1" parent="1">
          <mxGeometry x="-110" y="70" width="40" height="20" as="geometry" />
        </mxCell>
        <mxCell id="wr0yRLGajq1JF1R-OTqu-95" value="n,1" style="text;html=1;strokeColor=none;fillColor=none;align=center;verticalAlign=middle;whiteSpace=wrap;rounded=0;" vertex="1" parent="1">
          <mxGeometry x="-192" y="240" width="40" height="20" as="geometry" />
        </mxCell>
        <mxCell id="wr0yRLGajq1JF1R-OTqu-97" value="1,n" style="text;html=1;strokeColor=none;fillColor=none;align=center;verticalAlign=middle;whiteSpace=wrap;rounded=0;" vertex="1" parent="1">
          <mxGeometry x="-210" y="480" width="40" height="20" as="geometry" />
        </mxCell>
        <mxCell id="wr0yRLGajq1JF1R-OTqu-103" value="1, n" style="text;html=1;strokeColor=none;fillColor=none;align=center;verticalAlign=middle;whiteSpace=wrap;rounded=0;" vertex="1" parent="1">
          <mxGeometry x="-350" y="430" width="40" height="20" as="geometry" />
        </mxCell>
        <mxCell id="wr0yRLGajq1JF1R-OTqu-104" value="1,1" style="text;html=1;strokeColor=none;fillColor=none;align=center;verticalAlign=middle;whiteSpace=wrap;rounded=0;" vertex="1" parent="1">
          <mxGeometry x="-380" y="510" width="40" height="20" as="geometry" />
        </mxCell>
        <mxCell id="wr0yRLGajq1JF1R-OTqu-105" value="1,1" style="text;html=1;strokeColor=none;fillColor=none;align=center;verticalAlign=middle;whiteSpace=wrap;rounded=0;" vertex="1" parent="1">
          <mxGeometry x="-250" y="590" width="40" height="20" as="geometry" />
        </mxCell>
        <mxCell id="wr0yRLGajq1JF1R-OTqu-106" value="1,1" style="text;html=1;strokeColor=none;fillColor=none;align=center;verticalAlign=middle;whiteSpace=wrap;rounded=0;" vertex="1" parent="1">
          <mxGeometry x="-100" y="580" width="40" height="20" as="geometry" />
        </mxCell>
        <mxCell id="wr0yRLGajq1JF1R-OTqu-107" value="1.n" style="text;html=1;strokeColor=none;fillColor=none;align=center;verticalAlign=middle;whiteSpace=wrap;rounded=0;" vertex="1" parent="1">
          <mxGeometry x="-290" y="470" width="40" height="20" as="geometry" />
        </mxCell>
        <mxCell id="wr0yRLGajq1JF1R-OTqu-108" value="1,1" style="text;html=1;strokeColor=none;fillColor=none;align=center;verticalAlign=middle;whiteSpace=wrap;rounded=0;" vertex="1" parent="1">
          <mxGeometry x="-306" y="520" width="40" height="20" as="geometry" />
        </mxCell>
        <mxCell id="wr0yRLGajq1JF1R-OTqu-109" value="1,1" style="text;html=1;strokeColor=none;fillColor=none;align=center;verticalAlign=middle;whiteSpace=wrap;rounded=0;" vertex="1" parent="1">
          <mxGeometry x="-190" y="560" width="40" height="20" as="geometry" />
        </mxCell>
        <mxCell id="wr0yRLGajq1JF1R-OTqu-110" value="1,1" style="text;html=1;strokeColor=none;fillColor=none;align=center;verticalAlign=middle;whiteSpace=wrap;rounded=0;" vertex="1" parent="1">
          <mxGeometry x="-110" y="530" width="40" height="20" as="geometry" />
        </mxCell>
        <mxCell id="wr0yRLGajq1JF1R-OTqu-114" value="1,n&amp;nbsp;" style="text;html=1;strokeColor=none;fillColor=none;align=center;verticalAlign=middle;whiteSpace=wrap;rounded=0;" vertex="1" parent="1">
          <mxGeometry x="-126" y="500" width="40" height="20" as="geometry" />
        </mxCell>
        <mxCell id="wr0yRLGajq1JF1R-OTqu-115" value="n,1" style="text;html=1;strokeColor=none;fillColor=none;align=center;verticalAlign=middle;whiteSpace=wrap;rounded=0;" vertex="1" parent="1">
          <mxGeometry x="80" y="510" width="40" height="20" as="geometry" />
        </mxCell>
        <mxCell id="wr0yRLGajq1JF1R-OTqu-116" value="1,n" style="text;html=1;strokeColor=none;fillColor=none;align=center;verticalAlign=middle;whiteSpace=wrap;rounded=0;" vertex="1" parent="1">
          <mxGeometry x="-313" y="90" width="40" height="20" as="geometry" />
        </mxCell>
        <mxCell id="wr0yRLGajq1JF1R-OTqu-176" style="edgeStyle=orthogonalEdgeStyle;rounded=0;orthogonalLoop=1;jettySize=auto;html=1;" edge="1" parent="1" source="wr0yRLGajq1JF1R-OTqu-117" target="wr0yRLGajq1JF1R-OTqu-12">
          <mxGeometry relative="1" as="geometry" />
        </mxCell>
        <mxCell id="wr0yRLGajq1JF1R-OTqu-117" value="&lt;span style=&quot;font-weight: normal&quot;&gt;Retirada&lt;/span&gt;" style="ellipse;whiteSpace=wrap;html=1;align=center;fontStyle=1" vertex="1" parent="1">
          <mxGeometry x="370" y="640" width="100" height="40" as="geometry" />
        </mxCell>
        <mxCell id="wr0yRLGajq1JF1R-OTqu-131" value="" style="edgeStyle=orthogonalEdgeStyle;rounded=0;orthogonalLoop=1;jettySize=auto;html=1;" edge="1" parent="1" source="wr0yRLGajq1JF1R-OTqu-118" target="wr0yRLGajq1JF1R-OTqu-9">
          <mxGeometry relative="1" as="geometry" />
        </mxCell>
        <mxCell id="wr0yRLGajq1JF1R-OTqu-118" value="Nome" style="ellipse;whiteSpace=wrap;html=1;align=center;fontStyle=1" vertex="1" parent="1">
          <mxGeometry x="150" y="-100" width="100" height="40" as="geometry" />
        </mxCell>
        <mxCell id="wr0yRLGajq1JF1R-OTqu-166" style="edgeStyle=orthogonalEdgeStyle;rounded=0;orthogonalLoop=1;jettySize=auto;html=1;" edge="1" parent="1" source="wr0yRLGajq1JF1R-OTqu-119" target="wr0yRLGajq1JF1R-OTqu-2">
          <mxGeometry relative="1" as="geometry" />
        </mxCell>
        <mxCell id="wr0yRLGajq1JF1R-OTqu-119" value="Nome" style="ellipse;whiteSpace=wrap;html=1;align=center;fontStyle=1" vertex="1" parent="1">
          <mxGeometry x="580" y="200" width="90" height="40" as="geometry" />
        </mxCell>
        <mxCell id="wr0yRLGajq1JF1R-OTqu-154" style="edgeStyle=orthogonalEdgeStyle;rounded=0;orthogonalLoop=1;jettySize=auto;html=1;entryX=1;entryY=0.25;entryDx=0;entryDy=0;" edge="1" parent="1" source="wr0yRLGajq1JF1R-OTqu-122" target="wr0yRLGajq1JF1R-OTqu-9">
          <mxGeometry relative="1" as="geometry" />
        </mxCell>
        <mxCell id="wr0yRLGajq1JF1R-OTqu-122" value="Telefone" style="ellipse;whiteSpace=wrap;html=1;align=center;fontStyle=1" vertex="1" parent="1">
          <mxGeometry x="690" y="-110" width="100" height="40" as="geometry" />
        </mxCell>
        <mxCell id="wr0yRLGajq1JF1R-OTqu-128" value="" style="edgeStyle=orthogonalEdgeStyle;rounded=0;orthogonalLoop=1;jettySize=auto;html=1;" edge="1" parent="1" source="wr0yRLGajq1JF1R-OTqu-123" target="wr0yRLGajq1JF1R-OTqu-9">
          <mxGeometry relative="1" as="geometry" />
        </mxCell>
        <mxCell id="wr0yRLGajq1JF1R-OTqu-123" value="Email" style="ellipse;whiteSpace=wrap;html=1;align=center;fontStyle=1" vertex="1" parent="1">
          <mxGeometry x="110" y="-30" width="100" height="40" as="geometry" />
        </mxCell>
        <mxCell id="wr0yRLGajq1JF1R-OTqu-153" style="edgeStyle=orthogonalEdgeStyle;rounded=0;orthogonalLoop=1;jettySize=auto;html=1;exitX=0;exitY=0.5;exitDx=0;exitDy=0;entryX=1;entryY=1;entryDx=0;entryDy=0;" edge="1" parent="1" source="wr0yRLGajq1JF1R-OTqu-124" target="wr0yRLGajq1JF1R-OTqu-9">
          <mxGeometry relative="1" as="geometry" />
        </mxCell>
        <mxCell id="wr0yRLGajq1JF1R-OTqu-124" value="Endereço" style="ellipse;whiteSpace=wrap;html=1;align=center;fontStyle=1" vertex="1" parent="1">
          <mxGeometry x="660" y="10" width="100" height="40" as="geometry" />
        </mxCell>
        <mxCell id="wr0yRLGajq1JF1R-OTqu-133" style="edgeStyle=orthogonalEdgeStyle;rounded=0;orthogonalLoop=1;jettySize=auto;html=1;entryX=0.679;entryY=0.023;entryDx=0;entryDy=0;entryPerimeter=0;" edge="1" parent="1" source="wr0yRLGajq1JF1R-OTqu-125" target="wr0yRLGajq1JF1R-OTqu-9">
          <mxGeometry relative="1" as="geometry" />
        </mxCell>
        <mxCell id="wr0yRLGajq1JF1R-OTqu-125" value="CPF" style="ellipse;whiteSpace=wrap;html=1;align=center;fontStyle=4;" vertex="1" parent="1">
          <mxGeometry x="390" y="-240" width="100" height="40" as="geometry" />
        </mxCell>
        <mxCell id="wr0yRLGajq1JF1R-OTqu-165" style="edgeStyle=orthogonalEdgeStyle;rounded=0;orthogonalLoop=1;jettySize=auto;html=1;entryX=0.937;entryY=1.008;entryDx=0;entryDy=0;entryPerimeter=0;" edge="1" parent="1" source="wr0yRLGajq1JF1R-OTqu-126" target="wr0yRLGajq1JF1R-OTqu-2">
          <mxGeometry relative="1" as="geometry" />
        </mxCell>
        <mxCell id="wr0yRLGajq1JF1R-OTqu-126" value="Matricula" style="ellipse;whiteSpace=wrap;html=1;align=center;fontStyle=4;" vertex="1" parent="1">
          <mxGeometry x="570" y="300" width="100" height="40" as="geometry" />
        </mxCell>
        <mxCell id="wr0yRLGajq1JF1R-OTqu-143" value="1,1" style="text;html=1;strokeColor=none;fillColor=none;align=center;verticalAlign=middle;whiteSpace=wrap;rounded=0;" vertex="1" parent="1">
          <mxGeometry x="206" y="-10" width="40" height="20" as="geometry" />
        </mxCell>
        <mxCell id="wr0yRLGajq1JF1R-OTqu-144" value="1,1" style="text;html=1;strokeColor=none;fillColor=none;align=center;verticalAlign=middle;whiteSpace=wrap;rounded=0;" vertex="1" parent="1">
          <mxGeometry x="320" y="-20" width="40" height="20" as="geometry" />
        </mxCell>
        <mxCell id="wr0yRLGajq1JF1R-OTqu-145" value="1,n" style="text;html=1;strokeColor=none;fillColor=none;align=center;verticalAlign=middle;whiteSpace=wrap;rounded=0;" vertex="1" parent="1">
          <mxGeometry x="250" y="-100" width="40" height="20" as="geometry" />
        </mxCell>
        <mxCell id="wr0yRLGajq1JF1R-OTqu-146" value="n,1" style="text;html=1;strokeColor=none;fillColor=none;align=center;verticalAlign=middle;whiteSpace=wrap;rounded=0;" vertex="1" parent="1">
          <mxGeometry x="374" y="-70" width="40" height="20" as="geometry" />
        </mxCell>
        <mxCell id="wr0yRLGajq1JF1R-OTqu-147" value="1,1" style="text;html=1;strokeColor=none;fillColor=none;align=center;verticalAlign=middle;whiteSpace=wrap;rounded=0;" vertex="1" parent="1">
          <mxGeometry x="390" y="-200" width="40" height="20" as="geometry" />
        </mxCell>
        <mxCell id="wr0yRLGajq1JF1R-OTqu-150" value="1,1" style="text;html=1;strokeColor=none;fillColor=none;align=center;verticalAlign=middle;whiteSpace=wrap;rounded=0;" vertex="1" parent="1">
          <mxGeometry x="438" y="-80" width="40" height="20" as="geometry" />
        </mxCell>
        <mxCell id="wr0yRLGajq1JF1R-OTqu-155" value="n,1" style="text;html=1;strokeColor=none;fillColor=none;align=center;verticalAlign=middle;whiteSpace=wrap;rounded=0;" vertex="1" parent="1">
          <mxGeometry x="490" y="-60" width="40" height="20" as="geometry" />
        </mxCell>
        <mxCell id="wr0yRLGajq1JF1R-OTqu-156" value="n,1" style="text;html=1;strokeColor=none;fillColor=none;align=center;verticalAlign=middle;whiteSpace=wrap;rounded=0;" vertex="1" parent="1">
          <mxGeometry x="650" y="-120" width="40" height="20" as="geometry" />
        </mxCell>
        <mxCell id="wr0yRLGajq1JF1R-OTqu-157" value="1,n" style="text;html=1;strokeColor=none;fillColor=none;align=center;verticalAlign=middle;whiteSpace=wrap;rounded=0;" vertex="1" parent="1">
          <mxGeometry x="620" y="10" width="40" height="20" as="geometry" />
        </mxCell>
        <mxCell id="wr0yRLGajq1JF1R-OTqu-158" value="1,n" style="text;html=1;strokeColor=none;fillColor=none;align=center;verticalAlign=middle;whiteSpace=wrap;rounded=0;" vertex="1" parent="1">
          <mxGeometry x="490" y="10" width="40" height="20" as="geometry" />
        </mxCell>
        <mxCell id="wr0yRLGajq1JF1R-OTqu-160" value="1,n" style="text;html=1;strokeColor=none;fillColor=none;align=center;verticalAlign=middle;whiteSpace=wrap;rounded=0;" vertex="1" parent="1">
          <mxGeometry x="362" y="30" width="40" height="20" as="geometry" />
        </mxCell>
        <mxCell id="wr0yRLGajq1JF1R-OTqu-161" value="n,1" style="text;html=1;strokeColor=none;fillColor=none;align=center;verticalAlign=middle;whiteSpace=wrap;rounded=0;" vertex="1" parent="1">
          <mxGeometry x="420" y="220" width="40" height="20" as="geometry" />
        </mxCell>
        <mxCell id="wr0yRLGajq1JF1R-OTqu-169" value="n,1" style="text;html=1;strokeColor=none;fillColor=none;align=center;verticalAlign=middle;whiteSpace=wrap;rounded=0;" vertex="1" parent="1">
          <mxGeometry x="-126" y="180" width="40" height="20" as="geometry" />
        </mxCell>
        <mxCell id="wr0yRLGajq1JF1R-OTqu-170" value="1,n" style="text;html=1;strokeColor=none;fillColor=none;align=center;verticalAlign=middle;whiteSpace=wrap;rounded=0;" vertex="1" parent="1">
          <mxGeometry x="10" y="210" width="40" height="20" as="geometry" />
        </mxCell>
        <mxCell id="wr0yRLGajq1JF1R-OTqu-171" value="1,n" style="text;html=1;strokeColor=none;fillColor=none;align=center;verticalAlign=middle;whiteSpace=wrap;rounded=0;" vertex="1" parent="1">
          <mxGeometry x="166" y="209" width="40" height="20" as="geometry" />
        </mxCell>
        <mxCell id="wr0yRLGajq1JF1R-OTqu-172" value="n,1" style="text;html=1;strokeColor=none;fillColor=none;align=center;verticalAlign=middle;whiteSpace=wrap;rounded=0;" vertex="1" parent="1">
          <mxGeometry x="310" y="250" width="40" height="20" as="geometry" />
        </mxCell>
        <mxCell id="wr0yRLGajq1JF1R-OTqu-178" value="1,n" style="text;html=1;strokeColor=none;fillColor=none;align=center;verticalAlign=middle;whiteSpace=wrap;rounded=0;" vertex="1" parent="1">
          <mxGeometry x="240" y="510" width="40" height="20" as="geometry" />
        </mxCell>
        <mxCell id="wr0yRLGajq1JF1R-OTqu-179" value="n, 1" style="text;html=1;strokeColor=none;fillColor=none;align=center;verticalAlign=middle;whiteSpace=wrap;rounded=0;" vertex="1" parent="1">
          <mxGeometry x="310" y="510" width="40" height="20" as="geometry" />
        </mxCell>
        <mxCell id="wr0yRLGajq1JF1R-OTqu-183" style="edgeStyle=orthogonalEdgeStyle;rounded=0;orthogonalLoop=1;jettySize=auto;html=1;entryX=0.582;entryY=0.023;entryDx=0;entryDy=0;entryPerimeter=0;" edge="1" parent="1" source="wr0yRLGajq1JF1R-OTqu-181" target="wr0yRLGajq1JF1R-OTqu-12">
          <mxGeometry relative="1" as="geometry" />
        </mxCell>
        <mxCell id="wr0yRLGajq1JF1R-OTqu-181" value="PEDE" style="rhombus;whiteSpace=wrap;html=1;" vertex="1" parent="1">
          <mxGeometry x="360" y="340" width="116" height="80" as="geometry" />
        </mxCell>
        <mxCell id="wr0yRLGajq1JF1R-OTqu-184" value="1,1" style="text;html=1;strokeColor=none;fillColor=none;align=center;verticalAlign=middle;whiteSpace=wrap;rounded=0;" vertex="1" parent="1">
          <mxGeometry x="430" y="620" width="40" height="20" as="geometry" />
        </mxCell>
        <mxCell id="wr0yRLGajq1JF1R-OTqu-185" value="1,1" style="text;html=1;strokeColor=none;fillColor=none;align=center;verticalAlign=middle;whiteSpace=wrap;rounded=0;" vertex="1" parent="1">
          <mxGeometry x="420" y="565" width="40" height="20" as="geometry" />
        </mxCell>
        <mxCell id="wr0yRLGajq1JF1R-OTqu-186" value="1,1" style="text;html=1;strokeColor=none;fillColor=none;align=center;verticalAlign=middle;whiteSpace=wrap;rounded=0;" vertex="1" parent="1">
          <mxGeometry x="490" y="500" width="40" height="20" as="geometry" />
        </mxCell>
        <mxCell id="wr0yRLGajq1JF1R-OTqu-187" value="1,1" style="text;html=1;strokeColor=none;fillColor=none;align=center;verticalAlign=middle;whiteSpace=wrap;rounded=0;" vertex="1" parent="1">
          <mxGeometry x="560" y="520" width="40" height="20" as="geometry" />
        </mxCell>
        <mxCell id="wr0yRLGajq1JF1R-OTqu-188" value="n,1" style="text;html=1;strokeColor=none;fillColor=none;align=center;verticalAlign=middle;whiteSpace=wrap;rounded=0;" vertex="1" parent="1">
          <mxGeometry x="394" y="490" width="40" height="20" as="geometry" />
        </mxCell>
        <mxCell id="wr0yRLGajq1JF1R-OTqu-189" value="1,n" style="text;html=1;strokeColor=none;fillColor=none;align=center;verticalAlign=middle;whiteSpace=wrap;rounded=0;" vertex="1" parent="1">
          <mxGeometry x="-126" y="240" width="40" height="20" as="geometry" />
        </mxCell>
        <mxCell id="wr0yRLGajq1JF1R-OTqu-192" value="1,n" style="text;html=1;strokeColor=none;fillColor=none;align=center;verticalAlign=middle;whiteSpace=wrap;rounded=0;" vertex="1" parent="1">
          <mxGeometry x="374" y="310" width="40" height="20" as="geometry" />
        </mxCell>
      </root>
    </mxGraphModel>
  </diagram>
</mxfile>
